<svg width="117" height="140" viewBox="0 0 117 140" fill="none" xmlns="http://www.w3.org/2000/svg">
<path fill-rule="evenodd" clip-rule="evenodd" d="M92.7407 72.7964L113.682 87.1296C114.587 87.7419 115.329 88.5672 115.841 89.5332C116.353 90.4991 116.62 91.5761 116.618 92.6694V103.715C116.621 104.603 116.447 105.482 116.106 106.302C115.765 107.121 115.264 107.864 114.633 108.488L91.2723 131.848C90.6556 132.482 89.919 132.986 89.1055 133.333C88.292 133.68 87.4178 133.861 86.5335 133.867C85.6404 133.867 84.756 133.691 83.9305 133.35C82.6958 132.843 81.6415 131.977 80.9039 130.864C80.1662 129.752 79.7791 128.444 79.7924 127.109L80.0927 88.4645L80.2095 76.3672L54.4131 58.7135C53.5104 58.0994 52.7722 57.2732 52.2631 56.3073C51.754 55.3415 51.4896 54.2655 51.4931 53.1738V6.70343C51.4877 5.47897 51.8193 4.27664 52.4516 3.22804C53.0839 2.17943 53.9924 1.32496 55.0778 0.75815C56.1632 0.191339 57.3836 -0.0659678 58.6054 0.0143908C59.8272 0.0947494 61.0034 0.509676 62.0052 1.21376L112.981 36.1374C113.741 36.6626 114.387 37.3375 114.877 38.1207C115.368 38.904 115.693 39.7792 115.834 40.6927C115.97 41.6049 115.916 42.5356 115.675 43.4258C115.434 44.3161 115.011 45.1468 114.432 45.8653L92.7407 72.7964ZM61.5213 13.0441V51.4217L84.4478 67.1232L104.354 42.378L61.5213 13.0441ZM89.8874 119.1L106.573 102.414V94.4214L96.6952 87.6469L90.2044 83.2084L90.1043 95.289L89.8874 119.1ZM36.3924 63.435L62.1722 81.1387C63.0718 81.7547 63.8068 82.5817 64.3129 83.5475C64.819 84.5132 65.0809 85.5882 65.0755 86.6785V133.115C65.0879 134.341 64.7624 135.547 64.1347 136.6C63.507 137.653 62.6013 138.513 61.517 139.086C60.4327 139.658 59.2118 139.921 57.9881 139.845C56.7644 139.769 55.5853 139.357 54.5801 138.655L3.60455 103.731C2.83834 103.214 2.18811 102.542 1.69508 101.76C1.20204 100.978 0.876974 100.101 0.740485 99.1866C0.603995 98.272 0.659064 97.339 0.902198 96.4467C1.14533 95.5545 1.57123 94.7225 2.15287 94.0036L17.5373 74.8815L23.8446 67.0391L23.4608 66.7721L2.92042 52.7226C2.02007 52.11 1.28327 51.2865 0.774292 50.3238C0.265314 49.3611 -0.000380397 48.2885 0.000384651 47.1995V36.07C-0.00919118 35.1781 0.160114 34.2933 0.498295 33.4679C0.836476 32.6425 1.33667 31.8933 1.96932 31.2645L25.3296 7.90417C26.2642 6.94076 27.4675 6.28149 28.7824 6.01243C30.0974 5.74337 31.4629 5.87703 32.7008 6.39595C33.9386 6.91487 34.9913 7.79495 35.7213 8.92129C36.4513 10.0476 36.8247 11.3679 36.7929 12.7097L36.3924 63.435ZM10.0119 37.4383V45.4475L26.4142 56.6438L26.6979 20.7523L10.0119 37.4383ZM12.2312 97.4743L55.064 126.841V88.4639L32.1542 72.7624L25.8302 80.5881L12.2312 97.4743Z" fill="url(#paint0_linear_1_767)"/>
<path d="M32.1543 72.7642L25.8303 80.5899L17.5374 74.9L23.8447 67.0576L32.1543 72.7642Z" fill="#00497F"/>
<path d="M90.1879 83.2093L90.0878 95.2899L80.1096 88.4654L80.2098 76.3848L90.1879 83.2093Z" fill="#00497F"/>
<defs>
<linearGradient id="paint0_linear_1_767" x1="70.3631" y1="54.7862" x2="19.2057" y2="83.6433" gradientUnits="userSpaceOnUse">
<stop stop-color="#095DA9"/>
<stop offset="1" stop-color="#41AFD6"/>
</linearGradient>
</defs>
</svg>
